<svg width="25" height="25" viewBox="0 0 25 25" fill="none" xmlns="http://www.w3.org/2000/svg">
<path d="M8.28626 6.0957C8.92526 6.0957 9.51626 6.1457 10.0563 6.2937C10.5973 6.3927 11.0403 6.5907 11.4333 6.8377C11.8273 7.0857 12.1223 7.4317 12.3183 7.8767C12.5153 8.3217 12.6143 8.8667 12.6143 9.4597C12.6143 10.1527 12.4663 10.7457 12.1223 11.1907C11.8273 11.6367 11.3353 12.0317 10.7453 12.3287C11.5813 12.5767 12.2203 13.0217 12.6143 13.6157C13.0073 14.2087 13.2533 14.9507 13.2533 15.7917C13.2533 16.4847 13.1053 17.0777 12.8593 17.5727C12.6143 18.0677 12.2203 18.5127 11.7773 18.8097C11.296 19.128 10.7641 19.362 10.2043 19.5017C9.61426 19.6507 9.02426 19.7497 8.43426 19.7497H1.84326V6.0957H8.28626ZM7.89226 11.6357C8.43326 11.6357 8.87626 11.4877 9.22026 11.2407C9.56426 10.9937 9.71226 10.5477 9.71226 10.0037C9.71226 9.7067 9.66226 9.4107 9.56426 9.2127C9.46626 9.0147 9.31826 8.8657 9.12226 8.7177C8.92526 8.6187 8.72826 8.5197 8.48226 8.4707C8.23626 8.4207 7.99126 8.4207 7.69526 8.4207H4.84326V11.6367H7.89326L7.89226 11.6357ZM8.04026 17.4737C8.33526 17.4737 8.63026 17.4237 8.87626 17.3747C9.12226 17.3247 9.36826 17.2267 9.56426 17.0777C9.76465 16.9329 9.93229 16.7476 10.0563 16.5337C10.1543 16.2867 10.2533 15.9897 10.2533 15.6437C10.2533 14.9507 10.0563 14.4557 9.66326 14.1097C9.26926 13.8127 8.72826 13.6647 8.08926 13.6647H4.84326V17.4747L8.04026 17.4737ZM17.5323 17.4237C17.9253 17.8197 18.5153 18.0177 19.3023 18.0177C19.8433 18.0177 20.3353 17.8697 20.7283 17.6227C21.1223 17.3257 21.3683 17.0287 21.4663 16.7327H23.8763C23.4823 17.9187 22.8923 18.7597 22.1063 19.3047C21.3183 19.7987 20.3843 20.0957 19.2533 20.0957C18.5296 20.0979 17.8121 19.9636 17.1383 19.6997C16.5319 19.4723 15.9912 19.0986 15.5643 18.6117C15.1076 18.1563 14.77 17.5955 14.5813 16.9787C14.3353 16.3357 14.2363 15.6437 14.2363 14.8517C14.2363 14.1097 14.3353 13.4177 14.5813 12.7737C14.8182 12.1541 15.1685 11.584 15.6143 11.0927C16.0634 10.6315 16.5975 10.2617 17.1873 10.0037C17.844 9.73977 18.5455 9.6053 19.2533 9.6077C20.0893 9.6077 20.8273 9.7567 21.4663 10.1027C22.1063 10.4487 22.5973 10.8447 22.9903 11.4387C23.3843 11.9827 23.6803 12.6257 23.8763 13.3187C23.9743 14.0107 24.0233 14.7037 23.9743 15.4947H16.8433C16.8433 16.2867 17.1383 17.0287 17.5323 17.4247V17.4237ZM20.6303 12.2297C20.2863 11.8837 19.7453 11.6857 19.1053 11.6857C18.6633 11.6857 18.3183 11.7857 18.0233 11.9337C17.7283 12.0817 17.5323 12.2797 17.3353 12.4777C17.1539 12.6689 17.0338 12.9098 16.9903 13.1697C16.9413 13.4177 16.8923 13.6157 16.8923 13.8127H21.3183C21.2203 13.0707 20.9743 12.5767 20.6303 12.2297ZM16.3023 7.0357H21.8103V8.3717H16.3033V7.0357H16.3023Z" fill="#A4A4A4"/>
</svg>
