<svg width="24" height="24" viewBox="0 0 24 24" fill="none" xmlns="http://www.w3.org/2000/svg">
<g clip-path="url(#clip0_2057_180)">
<path d="M22.2434 8.19608C22.2314 7.29478 22.0627 6.40243 21.7448 5.55897C21.4691 4.84751 21.048 4.20138 20.5085 3.66186C19.969 3.12234 19.3229 2.70129 18.6114 2.42562C17.7788 2.11306 16.8992 1.94406 16.01 1.9258C14.8652 1.87463 14.5022 1.86035 11.5962 1.86035C8.69012 1.86035 8.31764 1.86035 7.18116 1.9258C6.2924 1.94419 5.41319 2.1132 4.58094 2.42562C3.86937 2.7011 3.22314 3.12208 2.68359 3.66162C2.14405 4.20117 1.72307 4.8474 1.44759 5.55897C1.13441 6.39096 0.965773 7.27036 0.948966 8.15919C0.897795 9.30519 0.882324 9.66815 0.882324 12.5742C0.882324 15.4803 0.882324 15.8515 0.948966 16.9892C0.966816 17.8794 1.13461 18.7576 1.44759 19.5918C1.72353 20.3032 2.14482 20.9491 2.68455 21.4885C3.22428 22.0278 3.87057 22.4486 4.58213 22.724C5.4121 23.0491 6.29146 23.2302 7.18235 23.2595C8.32835 23.3107 8.69131 23.3261 11.5974 23.3261C14.5034 23.3261 14.8759 23.3261 16.0124 23.2595C16.9015 23.242 17.7812 23.0734 18.6138 22.7609C19.3251 22.4849 19.971 22.0637 20.5105 21.5242C21.05 20.9848 21.4712 20.3388 21.7471 19.6275C22.0601 18.7945 22.2279 17.9163 22.2458 17.0249C22.2969 15.8801 22.3124 15.5171 22.3124 12.6099C22.31 9.70385 22.31 9.33494 22.2434 8.19608ZM11.589 18.0698C8.5497 18.0698 6.08752 15.6076 6.08752 12.5683C6.08752 9.52891 8.5497 7.06674 11.589 7.06674C13.0481 7.06674 14.4475 7.64636 15.4792 8.67809C16.5109 9.70983 17.0905 11.1092 17.0905 12.5683C17.0905 14.0273 16.5109 15.4267 15.4792 16.4584C14.4475 17.4901 13.0481 18.0698 11.589 18.0698ZM17.3095 8.1461C17.141 8.14625 16.9741 8.11318 16.8184 8.04876C16.6627 7.98435 16.5212 7.88986 16.4021 7.77071C16.2829 7.65155 16.1884 7.51007 16.124 7.35435C16.0596 7.19864 16.0265 7.03175 16.0267 6.86324C16.0267 6.69485 16.0598 6.52811 16.1243 6.37254C16.1887 6.21697 16.2832 6.07562 16.4022 5.95655C16.5213 5.83748 16.6627 5.74303 16.8182 5.67859C16.9738 5.61415 17.1405 5.58098 17.3089 5.58098C17.4773 5.58098 17.644 5.61415 17.7996 5.67859C17.9552 5.74303 18.0965 5.83748 18.2156 5.95655C18.3347 6.07562 18.4291 6.21697 18.4936 6.37254C18.558 6.52811 18.5912 6.69485 18.5912 6.86324C18.5912 7.5725 18.0176 8.1461 17.3095 8.1461Z" fill="#A4A4A4"/>
<path d="M11.5893 16.1415C13.563 16.1415 15.163 14.5415 15.163 12.5678C15.163 10.5941 13.563 8.99414 11.5893 8.99414C9.61561 8.99414 8.01562 10.5941 8.01562 12.5678C8.01562 14.5415 9.61561 16.1415 11.5893 16.1415Z" fill="#A4A4A4"/>
</g>
<defs>
<clipPath id="clip0_2057_180">
<rect width="22.9608" height="22.9608" fill="white" transform="translate(0.882324 0.746094)"/>
</clipPath>
</defs>
</svg>
