<svg width="24" height="24" viewBox="0 0 24 24" fill="none" xmlns="http://www.w3.org/2000/svg">
<path fill-rule="evenodd" clip-rule="evenodd" d="M1.87793 3.46154C1.87793 2.99518 2.06319 2.54792 2.39296 2.21816C2.72272 1.88839 3.16998 1.70313 3.63634 1.70313H21.165C21.3961 1.70275 21.625 1.74796 21.8387 1.83617C22.0523 1.92438 22.2464 2.05386 22.4099 2.2172C22.5734 2.38053 22.7031 2.57451 22.7916 2.78803C22.88 3.00156 22.9255 3.23043 22.9253 3.46154V20.9902C22.9256 21.2214 22.8803 21.4503 22.7919 21.6639C22.7036 21.8776 22.5741 22.0717 22.4106 22.2352C22.2472 22.3987 22.0532 22.5283 21.8396 22.6168C21.626 22.7052 21.3971 22.7507 21.166 22.7505H3.63634C3.40535 22.7505 3.17661 22.705 2.96321 22.6166C2.7498 22.5282 2.55592 22.3985 2.39262 22.2352C2.22932 22.0718 2.09982 21.8778 2.01151 21.6644C1.92319 21.4509 1.8778 21.2222 1.87793 20.9912V3.46154ZM10.2089 9.72793H13.0589V11.1592C13.4703 10.3364 14.5226 9.5959 16.1041 9.5959C19.1358 9.5959 19.8543 11.2347 19.8543 14.2416V19.8115H16.7862V14.9266C16.7862 13.2141 16.3748 12.2479 15.3301 12.2479C13.8807 12.2479 13.278 13.2897 13.278 14.9266V19.8115H10.2089V9.72793ZM4.94702 19.6805H8.01612V9.5959H4.94702V19.6795V19.6805ZM8.45524 6.30677C8.46103 6.56955 8.41427 6.83084 8.31771 7.0753C8.22115 7.31976 8.07673 7.54248 7.89292 7.73037C7.70912 7.91826 7.48964 8.06755 7.24737 8.16947C7.00509 8.27139 6.74489 8.32389 6.48205 8.32389C6.21921 8.32389 5.95901 8.27139 5.71673 8.16947C5.47445 8.06755 5.25497 7.91826 5.07117 7.73037C4.88737 7.54248 4.74295 7.31976 4.64639 7.0753C4.54983 6.83084 4.50307 6.56955 4.50886 6.30677C4.52021 5.79097 4.73309 5.30012 5.1019 4.93934C5.47071 4.57857 5.96612 4.37655 6.48205 4.37655C6.99797 4.37655 7.49339 4.57857 7.8622 4.93934C8.23101 5.30012 8.44388 5.79097 8.45524 6.30677Z" fill="#A4A4A4"/>
</svg>
