<svg width="23" height="24" viewBox="0 0 23 24" fill="none" xmlns="http://www.w3.org/2000/svg">
<path d="M17.7988 20.6035L20.1846 18.2155C20.3538 18.0471 20.488 17.8468 20.5796 17.6263C20.6712 17.4059 20.7183 17.1694 20.7183 16.9307C20.7183 16.4441 20.5277 15.9867 20.1846 15.6436L17.615 13.074C17.4465 12.9048 17.2463 12.7706 17.0258 12.679C16.8053 12.5874 16.5689 12.5403 16.3301 12.5403C15.8436 12.5403 15.3862 12.7309 15.0431 13.074L13.1641 14.953C12.1946 14.5132 11.3127 13.9017 10.5608 13.148C9.80529 12.3962 9.19155 11.5143 8.74905 10.5447L10.6281 8.6657C10.7973 8.49725 10.9315 8.29702 11.0231 8.07653C11.1147 7.85605 11.1618 7.61963 11.1617 7.38088C11.1617 6.89431 10.9711 6.43689 10.6281 6.09382L8.06067 3.52194C7.89191 3.35254 7.69131 3.21818 7.47043 3.12659C7.24955 3.03501 7.01273 2.988 6.77361 2.98828C6.28704 2.98828 5.82962 3.17887 5.48655 3.52194L3.10302 5.90547C2.55367 6.45258 2.24199 7.20823 2.24199 7.98405C2.24199 8.14774 2.25545 8.30469 2.28235 8.45941C2.78014 11.482 4.38784 14.4799 6.805 16.8993C9.21992 19.3165 12.2156 20.9219 15.2471 21.4264C16.1732 21.5789 17.1262 21.2717 17.7988 20.6035Z" fill="#A4A4A4"/>
</svg>
