<svg width="24" height="24" viewBox="0 0 24 24" fill="none" xmlns="http://www.w3.org/2000/svg">
<path d="M21.581 4.57312C21.494 4.56417 21.4064 4.56417 21.3195 4.57312H3.46108C3.34662 4.57489 3.23293 4.59205 3.12305 4.62415L12.3393 13.8021L21.581 4.57312Z" fill="#A4A4A4"/>
<path d="M22.525 5.45898L13.2386 14.7071C12.9996 14.9447 12.6763 15.078 12.3393 15.078C12.0023 15.078 11.679 14.9447 11.44 14.7071L2.23654 5.52914C2.20825 5.63313 2.19325 5.74028 2.19189 5.84804V18.604C2.19189 18.9424 2.32629 19.2668 2.56551 19.506C2.80473 19.7452 3.12918 19.8796 3.46749 19.8796H21.3259C21.6642 19.8796 21.9887 19.7452 22.2279 19.506C22.4671 19.2668 22.6015 18.9424 22.6015 18.604V5.84804C22.5964 5.71516 22.5706 5.58389 22.525 5.45898ZM4.34128 18.604H3.45474V17.692L8.09155 13.0935L8.99084 13.9927L4.34128 18.604ZM21.3131 18.604H20.4202L15.7707 13.9927L16.67 13.0935L21.3068 17.692L21.3131 18.604Z" fill="#A4A4A4"/>
</svg>
